# Blender v2.79 (sub 0) OBJ File: ''
# www.blender.org
mtllib testRampe.mtl
o Cube
v 1.000000 0.300000 3.000000
v 1.000000 0.300000 5.000000
v -1.000000 0.300000 5.000000
v -1.000000 0.300000 2.000000
v 1.000000 2.300000 -5.000000
v 0.999999 2.300000 -3.000000
v -1.000000 2.300000 -3.000000
v -1.000000 2.300000 -5.000000
v 1.000000 0.663547 -1.000000
v 1.000000 0.663547 1.000000
v -1.000000 0.663547 1.000000
v -1.000000 0.663547 -1.000000
v 1.000000 0.990837 -2.600000
v 1.000000 0.990837 -0.600000
v -1.000000 0.990837 -0.600000
v -1.000000 0.990837 -2.600000
v 1.000000 0.481773 0.500000
v 1.000000 0.481773 2.500000
v -1.000000 0.481773 2.500000
v -1.000000 0.481773 0.500000
v 1.000000 1.449044 -3.790000
v 1.000000 1.449044 -1.789999
v -1.000000 1.449044 -1.790000
v -1.000000 1.449044 -3.790000
vt 0.000000 0.000000
vt 1.000000 0.000000
vt 1.000000 1.000000
vt 0.000000 1.000000
vt 0.000000 0.000000
vt 1.000000 0.000000
vt 1.000000 1.000000
vt 0.000000 1.000000
vt 0.000000 0.000000
vt 1.000000 0.000000
vt 1.000000 1.000000
vt 0.000000 1.000000
vt 0.000000 0.000000
vt 1.000000 0.000000
vt 0.000000 1.000000
vt 0.000000 0.000000
vt 1.000000 0.000000
vt 1.000000 1.000000
vt 0.000000 1.000000
vt 0.000000 0.000000
vt 1.000000 0.000000
vt 1.000000 1.000000
vt 0.000000 1.000000
vt 0.000000 0.000000
vt 1.000000 0.000000
vt 1.000000 1.000000
vt 0.000000 1.000000
vt 0.000000 0.000000
vt 1.000000 0.000000
vt 0.000000 0.000000
vt 1.000000 0.000000
vt 1.000000 1.000000
vt 0.000000 1.000000
vt 1.000000 1.000000
vt 0.000000 1.000000
vt 1.000000 0.000000
vt 1.000000 1.000000
vt 0.000000 0.000000
vt 1.000000 0.000000
vt 0.000000 1.000000
vt 0.000000 0.000000
vt 1.000000 0.000000
vt 1.000000 1.000000
vt 0.000000 1.000000
vt 0.000000 0.000000
vt 1.000000 1.000000
vt 0.000000 1.000000
vt 1.000000 0.000000
vt 1.000000 1.000000
vt 0.000000 1.000000
vt 0.000000 0.000000
vt 1.000000 0.000000
vt 1.000000 1.000000
vt 0.000000 1.000000
vt 0.000000 0.000000
vt 1.000000 0.000000
vt 1.000000 1.000000
vt 1.000000 0.000000
vt 1.000000 1.000000
vt 0.000000 1.000000
vt 0.000000 0.000000
vt 1.000000 0.000000
vt 0.000000 0.000000
vt 1.000000 0.000000
vt 1.000000 1.000000
vt 0.000000 1.000000
vt 1.000000 1.000000
vt 0.000000 1.000000
vn 0.7019 -0.7119 -0.0227
vn 0.5371 -0.0306 0.8429
vn -0.5371 -0.0306 0.8430
vn -0.6884 -0.7241 -0.0425
vn 0.5430 0.2533 -0.8006
vn -0.5430 0.2533 -0.8006
vn -0.6451 0.7285 0.2305
vn 0.6451 0.7285 0.2305
vn 0.6806 -0.6464 -0.3450
vn 0.7357 0.5975 0.3189
vn -0.7357 0.5975 0.3189
vn -0.6806 -0.6464 -0.3450
vn 0.7058 -0.7045 -0.0747
vn -0.7031 -0.7071 -0.0750
vn 0.6889 -0.6956 -0.2035
vn 0.6981 -0.7067 -0.1149
vn -0.6981 -0.7067 -0.1149
vn -0.6889 -0.6956 -0.2035
vn -0.7125 0.6983 0.0677
vn -0.7163 0.6887 0.1120
vn 0.7125 0.6983 0.0677
vn 0.7163 0.6887 0.1120
vn -0.7262 0.6598 0.1931
vn 0.7262 0.6598 0.1931
usemtl Material
s 1
f 1/1/1 2/2/2 3/3/3 4/4/4
f 5/5/5 8/6/6 7/7/7 6/8/8
f 21/9/9 5/10/5 6/11/8 22/12/10
f 22/13/10 6/14/8 7/7/7 23/15/11
f 23/16/11 7/17/7 8/18/6 24/19/12
f 17/20/13 1/21/1 4/22/4 20/23/14
f 13/24/15 9/25/16 12/26/17 16/27/18
f 19/28/19 11/29/20 12/26/17 20/23/14
f 18/30/21 10/31/22 11/32/20 19/33/19
f 17/20/13 9/25/16 10/34/22 18/35/21
f 21/9/9 13/36/15 16/37/18 24/19/12
f 11/38/20 15/39/23 16/37/18 12/40/17
f 10/41/22 14/42/24 15/43/23 11/44/20
f 9/45/16 13/36/15 14/46/24 10/47/22
f 1/1/1 17/48/13 18/49/21 2/50/2
f 2/51/2 18/52/21 19/53/19 3/54/3
f 3/55/3 19/56/19 20/57/14 4/4/4
f 9/45/16 17/48/13 20/57/14 12/40/17
f 5/5/5 21/58/9 24/59/12 8/60/6
f 15/61/23 23/62/11 24/59/12 16/27/18
f 14/63/24 22/64/10 23/65/11 15/66/23
f 13/24/15 21/58/9 22/67/10 14/68/24
