# Blender v2.79 (sub 0) OBJ File: 'BlocAndSlope.blend'
# www.blender.org
mtllib BlocAndSlope.mtl
o Cube.002_Cube.003
v 6.000000 -0.600000 2.414987
v 6.000000 0.600000 2.385788
v 6.000000 0.599999 4.000000
v 6.000000 -0.600001 4.000000
v -6.000000 0.599999 4.000000
v -6.000000 -0.600001 4.000000
v -6.000000 -0.600000 1.886837
v -6.000000 0.600000 1.154383
v -6.000000 0.600001 -4.000000
v -6.000000 -0.599999 -4.000000
v 6.000000 0.600001 -4.000000
v 6.000000 -0.599999 -4.000000
v 6.000000 -0.600000 1.176286
v 6.000000 0.600000 1.154383
v -6.000000 0.600000 2.385788
v -6.000000 -0.600001 2.770431
v 8.898256 -0.600000 1.886837
v 8.898256 -0.600000 2.401362
v 8.898256 -0.584727 1.183598
v 8.898256 -0.584727 2.404445
vt 0.470437 0.838785
vt 0.531797 0.837144
vt 0.531797 0.927848
vt 0.470437 0.927848
vt 0.818130 0.000000
vt 0.879487 0.000001
vt 0.879487 0.674289
vt 0.818131 0.674288
vt 0.938640 0.118740
vt 1.000000 0.159897
vt 1.000000 0.449526
vt 0.938640 0.449526
vt 0.879487 0.000000
vt 0.938640 0.000045
vt 0.938640 0.674332
vt 0.879487 0.674286
vt 0.673745 0.162855
vt 0.710078 0.837144
vt 0.409065 0.837144
vt 0.409065 0.162855
vt 0.145505 0.839669
vt 0.145505 0.168491
vt 0.409065 0.168491
vt 0.409065 0.839669
vt 0.000000 0.839669
vt 0.000000 0.168491
vt 0.082540 0.168491
vt 0.082540 0.839669
vt 0.818130 0.162855
vt 0.818130 0.837144
vt 0.755259 0.837144
vt 0.737084 0.162855
vt 0.938640 0.000000
vt 1.000000 0.000000
vt 1.000000 0.090704
vt 0.938640 0.069090
vt 0.940847 0.674332
vt 0.940847 0.963960
vt 0.879487 0.965191
vt 0.710078 0.000000
vt 0.736387 0.000000
vt 0.531797 0.876659
vt 0.532578 0.837144
vt 0.532578 0.905744
vt 0.531797 0.905571
vt 0.470437 1.000000
vt 0.409065 1.000000
vt 0.409076 0.837144
vt 0.409855 0.837144
vt 0.081586 0.000000
vt 0.144011 0.000000
vt 0.818130 0.698348
vt 0.873403 0.674289
vt 0.873403 0.849455
vt 0.863853 0.853723
vn 1.0000 0.0000 0.0000
vn 0.0000 0.0000 1.0000
vn -1.0000 0.0000 0.0000
vn 0.0000 0.0000 -1.0000
vn 0.0000 -1.0000 -0.0000
vn 0.0000 1.0000 0.0000
vn 1.0000 -0.0001 0.0000
vn 0.0035 0.0215 0.9998
vn 0.3784 0.9257 0.0000
vn 0.0049 -0.5124 -0.8587
usemtl None
s 1
f 1/1/1 2/2/1 3/3/1 4/4/1
f 4/5/2 3/6/2 5/7/2 6/8/2
f 7/9/3 8/10/3 9/11/3 10/12/3
f 10/13/4 9/14/4 11/15/4 12/16/4
f 13/17/5 7/18/5 10/19/5 12/20/5
f 8/21/6 14/22/6 11/23/6 9/24/6
f 5/25/6 3/26/6 2/27/6 15/28/6
f 15/28/6 2/27/6 14/22/6 8/21/6
f 4/29/5 6/30/5 16/31/5 1/32/5
f 1/32/5 16/31/5 7/18/5 13/17/5
f 6/33/3 5/34/3 15/35/3 16/36/3
f 16/36/3 15/35/3 8/10/3 7/9/3
f 12/16/1 11/37/1 14/38/1 13/39/1
f 1/32/5 13/17/5 17/40/5 18/41/5
f 17/42/7 19/43/7 20/44/7 18/45/7
f 2/46/8 1/47/8 18/48/8 20/49/8
f 14/22/9 2/27/9 20/50/9 19/51/9
f 13/52/10 14/53/10 19/54/10 17/55/10
